<mxfile host="app.diagrams.net" modified="2024-02-06T06:23:20.544Z" agent="Mozilla/5.0 (Windows NT 10.0; Win64; x64) AppleWebKit/537.36 (KHTML, like Gecko) Chrome/120.0.0.0 Safari/537.36 OPR/106.0.0.0" version="23.1.1" etag="g1avjeqP-JVKT_BL1JpS" type="github">
  <diagram name="Page-1" id="sspgz4Dtjb0a5td3eAmq">
    <mxGraphModel>
      <root>
        <mxCell id="0" />
        <mxCell id="1" parent="0" />
      </root>
    </mxGraphModel>
  </diagram>
</mxfile>
